<svg version="1.1" xmlns="http://www.w3.org/2000/svg" xmlns:xlink="http://www.w3.org/1999/xlink" x="0px" y="0px" viewBox="0 0 44.26 32" enable-background="new 0 0 44.26 32" xml:space="preserve"><title>vmWare</title><path fill="#fff" d="M26.376,13.141C26.376,13.141,26.376,13.141,26.376,13.141c-0.008,0.089-0.029,0.176-0.062,0.259
    l-1.953,5.419c-0.06,0.24-0.269,0.416-0.516,0.43h-0.037c-0.255,0.002-0.474-0.179-0.518-0.43l-1.595-4.582l-1.602,4.586
    c-0.044,0.252-0.263,0.433-0.517,0.43c-0.248-0.014-0.458-0.188-0.517-0.43l-0.046-0.005l-1.938-5.393
    c-0.033-0.083-0.055-0.17-0.061-0.259c0.008-0.257,0.222-0.46,0.479-0.455c0.228,0.005,0.425,0.159,0.485,0.377l1.607,4.649
    l1.591-4.665c0.048-0.221,0.243-0.38,0.47-0.382h0.047c0.24-0.009,0.454,0.15,0.516,0.382l1.606,4.65l1.633-4.65
    c0.045-0.216,0.233-0.371,0.455-0.372C26.157,12.693,26.367,12.89,26.376,13.141z M36.764,13.172
    c-0.006-0.254-0.217-0.455-0.471-0.45c-0.964,0.063-1.815,0.662-2.198,1.55v-1.105c-0.003-0.262-0.22-0.473-0.481-0.47
    c-0.262,0.006-0.47,0.22-0.47,0.481v5.578c0,0.263,0.212,0.475,0.474,0.476c0.263,0,0.476-0.213,0.478-0.476v-2.163
    c0-1.845,1.031-2.77,2.246-2.909c0.244-0.024,0.431-0.234,0.423-0.48C36.764,13.172,36.764,13.172,36.764,13.172z M42.606,15.9
    c0,0.242-0.197,0.438-0.439,0.438h-4.524c0.031,1.193,1.012,2.145,2.206,2.139c0.678-0.002,1.326-0.272,1.802-0.753
    c0.138-0.176,0.392-0.206,0.567-0.068c0.174,0.138,0.203,0.393,0.065,0.566c-0.031,0.04-0.071,0.074-0.116,0.1
    c-0.614,0.628-1.465,0.974-2.345,0.95c-1.724,0.009-3.129-1.375-3.146-3.099c0-0.056,0-0.11,0-0.166
    c0-1.843,1.291-3.315,3.021-3.315C41.553,12.692,42.606,14.241,42.606,15.9z M41.677,15.61c-0.099-1.151-0.754-2.154-1.999-2.154
    c-1.09,0-1.916,0.919-2.035,2.154H41.677z M31.36,13.416c0.47,0.506,0.712,1.185,0.667,1.875v3.466
    c0.011,0.249-0.181,0.46-0.428,0.471c-0.001,0-0.001,0-0.001,0h-0.035c-0.241,0.012-0.443-0.173-0.456-0.412v-0.002c0,0,0,0,0-0.029
    v-0.574c-0.561,0.712-1.43,1.109-2.335,1.063c-1.178,0-2.37-0.672-2.38-1.969c0.01-1.332,1.117-2.05,2.721-2.05
    c0.664-0.005,1.326,0.087,1.964,0.274v-0.244c0-1.146-0.703-1.74-1.902-1.74c-0.509-0.022-1.017,0.077-1.481,0.289
    c-0.054,0.022-0.112,0.035-0.17,0.037c-0.226-0.003-0.411-0.183-0.419-0.409c-0.007-0.176,0.106-0.334,0.274-0.387
    c0.603-0.268,1.257-0.392,1.915-0.362C30.051,12.656,30.796,12.91,31.36,13.416z M31.088,16.174
    c-0.609-0.181-1.24-0.272-1.875-0.273c-1.194,0-1.861,0.517-1.861,1.316c0,0.802,0.74,1.271,1.602,1.271
    c1.173,0,2.135-0.713,2.135-1.726V16.174z M26.392,17.32c0-0.006,0.001-0.011,0.001-0.017c0-0.005-0.001-0.009-0.001-0.015V17.32z
     M14.417,12.558c-0.007,0-0.014,0-0.021,0h-0.062c-0.759,0.013-1.484,0.32-2.02,0.858c-0.464-0.599-1.199-0.92-1.952-0.858
    c-0.715,0.063-1.389,0.366-1.911,0.858c-0.415-0.52-1.036-0.833-1.7-0.858c-0.92-0.041-1.76,0.525-2.066,1.395l-1.281,3.064
    l-1.659-3.942c-0.208-0.448-0.738-0.644-1.188-0.439l-0.042,0.021c-0.443,0.202-0.639,0.724-0.439,1.167v0.042l2.041,4.375
    c0.32,0.687,0.656,1.032,1.281,1.032c0.625,0,0.965-0.393,1.281-1.032l1.787-3.875c0.043-0.097,0.143-0.157,0.249-0.15
    c0.154,0,0.279,0.125,0.279,0.279v3.746c-0.055,0.521,0.324,0.988,0.846,1.044s0.989-0.324,1.044-0.847
    c0.006-0.065,0.006-0.133,0-0.197v-3.1c-0.012-0.522,0.402-0.954,0.924-0.965c0.002,0,0.003,0,0.005,0h0.088
    c0.507-0.017,0.933,0.381,0.95,0.888c0.001,0.042,0,0.083-0.004,0.125v3.099c-0.051,0.52,0.329,0.981,0.849,1.033
    c0,0,0.002,0,0.003,0h0.087c0.528,0,0.956-0.428,0.956-0.955c0,0,0-0.051,0-0.078v-3.099c-0.018-0.522,0.392-0.959,0.913-0.977
    c0,0,0,0,0.001,0h0.088c0.507-0.026,0.939,0.363,0.966,0.871c0.002,0.035,0.001,0.071,0,0.106v3.099
    c-0.051,0.52,0.33,0.981,0.849,1.033c0.001,0,0.002,0,0.003,0h0.088c0.528,0,0.956-0.428,0.956-0.955c0,0,0-0.051,0-0.078v-3.528
    C16.611,13.546,15.63,12.561,14.417,12.558z M44.26,13.365c0.003,0.042,0.003,0.085,0,0.128c0.035,0.435-0.289,0.816-0.725,0.852
    c-0.435,0.035-0.815-0.289-0.851-0.724c-0.004-0.042-0.004-0.085,0-0.127c-0.035-0.435,0.289-0.817,0.724-0.852
    C43.844,12.606,44.225,12.93,44.26,13.365z M44.109,13.493c0.031-0.353-0.229-0.664-0.579-0.696
    c-0.354-0.031-0.665,0.228-0.697,0.581c-0.003,0.039-0.003,0.077,0,0.115c-0.031,0.353,0.229,0.664,0.581,0.695
    c0.353,0.032,0.664-0.228,0.695-0.581C44.113,13.569,44.113,13.531,44.109,13.493z M43.66,13.56l0.113,0.139
    c0.016,0.017,0.025,0.039,0.027,0.062c0,0.042-0.035,0.078-0.079,0.078c-0.032,0-0.062-0.016-0.082-0.041l-0.166-0.207H43.34v0.165
    c0.012,0.047-0.018,0.095-0.063,0.107c-0.048,0.011-0.095-0.017-0.106-0.064c-0.005-0.014-0.005-0.028,0-0.042v-0.583
    c-0.01-0.044,0.02-0.088,0.065-0.097c0.006-0.001,0.011-0.002,0.017-0.001h0.269c0.083-0.006,0.162,0.022,0.223,0.077
    c0.046,0.047,0.07,0.111,0.068,0.176C43.816,13.429,43.756,13.523,43.66,13.56z M43.64,13.354c0-0.072-0.047-0.109-0.128-0.109
    h-0.167v0.222l0.167-0.005C43.593,13.461,43.64,13.42,43.64,13.354z"></path></svg>