<svg version="1.1" xmlns="http://www.w3.org/2000/svg" xmlns:xlink="http://www.w3.org/1999/xlink" x="0px" y="0px" viewBox="5.826 0 20.348 32" enable-background="new 5.826 0 20.348 32" xml:space="preserve"><title>RSA</title>
<path fill="#fff" d="M22.647,12.55l3.062,6.994l-1.311,0.002l-2.381-5.485l-2.277,5.485h-1.32l2.996-6.996h1.229H22.647z
     M11.116,14.59c0-1.232-0.983-2.088-2.346-2.088H5.826v7.035h1.073v-6.01h1.813c0.605,0,1.259,0.316,1.269,1.072
    c0,0.688-0.495,1.099-1.348,1.133h-0.65l2.163,3.805h1.252l-1.688-2.989C10.557,16.272,11.125,15.479,11.116,14.59z M15.362,15.371
    c-1.091-0.313-1.569-0.588-1.569-1.133c0-0.822,1.008-0.904,1.376-0.904c0.596,0.014,1.182,0.154,1.72,0.41l0.455-0.892
    c-0.699-0.32-1.461-0.483-2.229-0.478c-1.559,0-2.546,0.715-2.546,1.943c0,1.399,1.376,1.796,2.47,2.102
    c1.094,0.307,1.517,0.688,1.517,1.221c0,0.908-0.918,1.032-1.489,1.032c-0.732,0.002-1.45-0.21-2.064-0.608l-0.536,0.911
    c0.776,0.485,1.677,0.735,2.593,0.719c1.626,0,2.71-0.842,2.71-2.149C17.77,16.086,16.452,15.684,15.362,15.371z M26.174,13.275
    c0,0.381-0.309,0.688-0.688,0.688s-0.688-0.308-0.688-0.688c0-0.38,0.309-0.688,0.688-0.688S26.174,12.896,26.174,13.275z
     M26.018,13.259c0-0.294-0.237-0.532-0.532-0.532c-0.295-0.001-0.533,0.237-0.533,0.532c0,0.021,0,0.021,0,0.021l0,0
    c-0.003,0.298,0.235,0.543,0.533,0.547h0.021c0,0,0,0,0.001,0C25.805,13.811,26.034,13.557,26.018,13.259z M25.579,13.311
    l0.212,0.344h-0.15l-0.207-0.344h-0.072v0.344h-0.147l-0.018-0.791h0.296c0.192,0,0.296,0.064,0.296,0.234c0,0.008,0,0.016,0,0.023
    C25.782,13.232,25.688,13.316,25.579,13.311z M25.492,13.197c0.09,0,0.164-0.011,0.164-0.121c0-0.109-0.085-0.109-0.161-0.109
    h-0.134l0.004,0.003v0.228H25.492z"></path>
</svg>