<svg version="1.1" xmlns="http://www.w3.org/2000/svg" xmlns:xlink="http://www.w3.org/1999/xlink" x="0px" y="0px" viewBox="0 0 32 32" enable-background="new 0 0 32 32" xml:space="preserve">
	<title>Dell</title>
	<path fill="#fff" d="M20.444,12.476h-1.601v2.635l-3.818,2.984l-0.854-0.666L16,16l1.991-1.556l-1.138-0.889l-3.816,2.985
    l-0.854-0.667L16,12.889L14.863,12l-3.985,3.111c-0.404-1.552-1.805-2.635-3.408-2.636H4.613v7.044l2.855,0.003
    c1.603-0.001,3.003-1.085,3.407-2.636l3.985,3.111l3.983-3.111v2.634h4.545v-1.399h-2.944V12.476z M7.468,18.122H6.212v-4.244h1.256
    c1.062,0,1.922,0.95,1.922,2.122S8.53,18.122,7.468,18.122z M16,0C7.164,0,0,7.164,0,16c0,8.836,7.164,16,16,16
    c8.836,0,16-7.164,16-16C32,7.164,24.836,0,16,0z M16,30.4C8.047,30.4,1.6,23.955,1.6,16C1.6,8.044,8.047,1.6,16,1.6
    c7.953,0,14.4,6.444,14.4,14.4C30.4,23.955,23.953,30.4,16,30.4z M28.479,18.122v1.4h-4.545v-7.045h1.601v5.645H28.479z"></path>
</svg>