<svg version="1.1" xmlns="http://www.w3.org/2000/svg" xmlns:xlink="http://www.w3.org/1999/xlink" x="0px" y="0px" viewBox="0 0 251 32" enable-background="new 0 0 58.204 32" xml:space="preserve">
    <title>SecureWorks</title>
<path fill="#fff" d="M13.056 13.568c-3.584-1.195-6.869-2.176-6.869-5.163 0-2.432 2.048-4.309 5.205-4.309 2.773 0 4.864 1.152 6.272 3.328l3.797-2.816c-2.389-2.773-5.333-4.608-10.069-4.608-5.76 0-9.984 3.755-9.984 8.491 0 5.717 4.565 7.424 8.789 8.789 3.584 1.152 6.997 2.176 6.997 5.376 0 2.773-2.176 4.992-5.632 4.992-3.157 0-5.632-1.579-7.467-4.523l-4.096 3.2c2.645 3.413 6.272 5.675 11.605 5.675 6.443 0 10.368-4.565 10.368-9.344 0-5.803-4.651-7.637-8.917-9.088z"></path>
<path fill="#fff"  d="M35.505 9.813c-6.272 0-11.093 4.907-11.093 11.179 0 6.187 4.523 11.008 11.264 11.008 4.736 0 8.107-2.304 9.984-5.803l-3.755-2.091c-1.109 2.304-3.328 3.84-6.229 3.84-3.712 0-6.272-2.176-6.869-5.461h17.664v-1.792c-0.011-6.315-4.661-10.88-10.965-10.88zM29.020 18.603c0.829-2.784 3.366-4.78 6.368-4.78 0.041 0 0.082 0 0.123 0.001l-0.006-0c3.285 0 5.632 1.707 6.315 4.779z"></path>
<path fill="#fff"  d="M60.322 27.733c-3.84 0-6.741-3.072-6.741-6.827 0-3.797 2.859-6.827 6.656-6.827 2.773 0 4.949 1.536 6.016 4.011l4.096-1.749c-1.621-3.84-5.376-6.528-10.112-6.528-6.229 0-11.136 4.821-11.136 11.093 0 6.144 4.821 11.093 11.136 11.093 4.992 0 8.533-2.773 10.24-6.699l-4.139-1.749c-0.981 2.389-3.115 4.181-6.016 4.181z"></path>
<path fill="#fff"  d="M121.715 9.813c-6.272 0-11.093 4.907-11.093 11.179 0 6.187 4.523 11.008 11.264 11.008 4.736 0 8.107-2.304 9.984-5.803l-3.755-2.091c-1.109 2.304-3.328 3.84-6.229 3.84-3.712 0-6.272-2.176-6.869-5.461h17.664v-1.792c0-6.315-4.651-10.88-10.965-10.88zM115.23 18.603c0.829-2.784 3.366-4.78 6.368-4.78 0.041 0 0.082 0 0.123 0.001l-0.006-0c3.285 0 5.632 1.707 6.315 4.779z"></path>
<path fill="#fff"  d="M158.598 25.387l-5.504-15.147h-4.523l-5.589 15.147-4.864-15.147-4.651-0.043 7.083 21.376h4.48l5.76-15.232 5.675 15.232h4.395l7.424-21.333h-4.651l-5.035 15.147z"></path>
<path fill="#fff"  d="M240.973 18.773c-3.072-0.683-5.035-1.109-5.035-2.645 0-1.365 1.237-2.56 3.669-2.56 2.133 0 3.797 0.939 4.779 2.432l3.797-2.091c-1.664-2.56-4.608-4.139-8.576-4.139-5.035-0.043-8.235 3.072-8.235 6.443 0 4.395 3.755 5.589 7.381 6.357 2.688 0.555 5.163 0.939 5.163 2.645 0 1.493-1.323 2.816-3.883 2.816-2.432 0-4.309-1.152-5.461-3.115l-4.096 2.133c1.792 3.157 4.907 4.949 9.344 4.949 6.059 0.043 8.619-3.925 8.619-6.869-0.002-4.437-3.97-5.589-7.467-6.357z"></path>
<path fill="#fff"  d="M249.359 4.779c0.001-0.018 0.002-0.039 0.002-0.061 0-0.556-0.451-1.007-1.007-1.007-0.015 0-0.030 0-0.044 0.001l0.002-0h-1.267v3.334h0.514v-1.21h0.352l0.866 1.21h0.629l-0.877-1.229c0.476-0.089 0.831-0.5 0.831-0.995 0-0.015-0-0.031-0.001-0.046l0 0.002zM247.569 5.321v-1.088h0.742c0.282 0.023 0.502 0.257 0.502 0.542 0 0.292-0.231 0.531-0.52 0.543l-0.001 0z"></path>
<path fill="#fff"  d="M248.092 1.965c-0.010-0-0.021-0-0.032-0-1.859 0-3.366 1.507-3.366 3.366s1.507 3.366 3.366 3.366c1.858 0 3.364-1.505 3.366-3.362v-0c0-0.010 0-0.022 0-0.034 0-1.842-1.493-3.335-3.334-3.337h-0zM248.092 8.151c-0.010 0-0.022 0-0.034 0-1.56 0-2.825-1.265-2.825-2.825s1.265-2.825 2.825-2.825c1.56 0 2.825 1.265 2.825 2.825 0 0.002 0 0.004 0 0.007v-0c0 0.010 0 0.022 0 0.034 0 1.54-1.248 2.788-2.788 2.788-0.001 0-0.002 0-0.002 0h0z"></path>
<path fill="#fff"  d="M88.145 21.982c0 2.887-2.34 5.227-5.227 5.227s-5.227-2.34-5.227-5.227v0-11.733h-4.64v11.733c0 5.455 4.422 9.877 9.877 9.877s9.877-4.422 9.877-9.877v0-11.733h-4.651z"></path>
<path fill="#fff"  d="M194.044 18.266v13.308h4.608v-13.308c0.002-1.966 1.596-3.559 3.563-3.561h4.8v-4.608h-4.8c-4.51 0.005-8.165 3.659-8.171 8.168v0.001z"></path>
<path fill="#fff"  d="M96.141 19.593v11.981h4.608v-11.981c0.002-2.699 2.19-4.887 4.889-4.89h3.467v-4.608h-3.467c-5.243 0.006-9.492 4.255-9.498 9.497v0.001z"></path>
<path fill="#fff"  d="M179.785 9.638c-0.001 0-0.001 0-0.002 0-2.245 0-4.334 0.668-6.080 1.816l0.042-0.026 3.014 3.347c0.886-0.46 1.934-0.73 3.045-0.73 3.711 0 6.72 3.009 6.72 6.72 0 1.359-0.403 2.623-1.096 3.68l0.016-0.026 3.014 3.347c1.543-1.895 2.478-4.339 2.478-7.002 0-6.148-4.984-11.132-11.132-11.132-0.003 0-0.007 0-0.010 0h0z"></path>
<path fill="#fff"  d="M179.785 27.503c-0.002 0-0.004 0-0.006 0-3.713 0-6.722-3.010-6.722-6.722 0-1.358 0.402-2.621 1.094-3.678l-0.016 0.026-3.014-3.347c-1.547 1.897-2.484 4.344-2.484 7.010 0 6.148 4.984 11.132 11.132 11.132 2.258 0 4.359-0.672 6.114-1.828l-0.042 0.026-3.023-3.347c-0.882 0.459-1.926 0.729-3.033 0.73h-0z"></path>
<path fill="#fff" d="M210.187 0.427v31.147h4.523v-31.147h-4.523z"></path>
<path fill="#fff"  d="M224.587 10.24l-9.877 10.667 9.877 10.667h5.44l-9.877-10.667 9.877-10.667h-5.44z"></path>
</svg>