<svg version="1.1" xmlns="http://www.w3.org/2000/svg" xmlns:xlink="http://www.w3.org/1999/xlink" x="0px" y="0px" viewBox="0 0 32 32" enable-background="new 0 0 32 32" xml:space="preserve"><title>Pivotal</title>
	<path fill="#fff" d="M7.184,13.461H6.059v-1.086h1.125V13.461z M6.058,19.673h1.126l0.003-5.408H6.058V19.673z M11.244,18.608
    c-0.054,0.188-0.094,0.296-0.258,0.296c-0.165,0-0.202-0.108-0.261-0.296l-1.349-4.343H8.023v0.793h0.518l1.309,3.882
    c0.207,0.595,0.555,0.862,1.134,0.862c0.391,0,0.872-0.103,1.141-0.862l1.572-4.675h-1.077L11.244,18.608z M18.958,16.61v0.851
    c0,1.378-1.02,2.344-2.479,2.344c-1.462,0-2.481-0.966-2.481-2.344V16.61c0-1.38,1.021-2.345,2.481-2.345v0
    C17.938,14.265,18.958,15.229,18.958,16.61z M17.889,16.61c0-0.792-0.535-1.453-1.41-1.453c-0.927,0-1.413,0.66-1.413,1.453v0.851
    c0,0.792,0.511,1.453,1.413,1.453c0.869,0,1.41-0.661,1.41-1.453V16.61z M27.967,14.437l0.001,0.003
    c-0.686-0.16-1.385-0.244-2.09-0.251c-1.483,0-2.402,0.936-2.402,2.441v0.595c0,1.504,0.919,2.452,2.402,2.452
    c0.034,0,0.299,0,0.418-0.011v-0.908c-0.046,0-0.385,0.011-0.418,0.011c-0.806,0-1.349-0.621-1.349-1.544V16.63
    c0-0.925,0.543-1.547,1.349-1.547c0.371-0.003,0.737,0.02,1.104,0.069l0.063,0.013v4.512h1.127v-5.051
    C28.172,14.528,28.172,14.492,27.967,14.437z M29.26,19.677h1.128v-7.302H29.26V19.677z M2.131,12.375H0.15v7.302h1.174v-6.286
    h0.688c0.146,0,0.271,0.008,0.396,0.01c1.018,0.019,1.52,0.423,1.52,1.213c0,0.033,0,0.054,0,0.087c0,0.731-0.402,1.217-1.511,1.217
    c-0.109,0-0.218,0-0.326,0c0,0.28,0,0.799,0,0.978c0.114,0.005,0.217,0.009,0.331,0.009c1.592,0,2.715-0.624,2.715-2.196
    c0-0.03,0-0.063,0-0.095C5.129,12.988,3.905,12.375,2.131,12.375z M20.961,13.097l-1.141,0.156v5.035
    c0,0.957,0.475,1.383,1.539,1.383h1.438v-0.875h-1.063c-0.458,0-0.774-0.014-0.774-0.508V15.14h1.837v-0.875h-1.837V13.097z
     M31.85,19.208c-0.001,0.26-0.212,0.469-0.471,0.469c-0.262,0-0.473-0.214-0.473-0.475c0.001-0.26,0.215-0.469,0.476-0.467
    C31.641,18.737,31.851,18.947,31.85,19.208z M31.783,19.202L31.783,19.202c-0.003-0.224-0.182-0.404-0.403-0.404v-0.002
    c-0.225,0-0.406,0.181-0.407,0.404c-0.002,0.223,0.18,0.406,0.401,0.408C31.6,19.608,31.78,19.427,31.783,19.202z M31.445,19.244
    l0.133,0.212h-0.063l-0.125-0.198l-0.121,0.007l0.002,0.189h-0.055V18.94h0.146c0.129,0,0.194,0.061,0.194,0.156
    C31.556,19.164,31.51,19.225,31.445,19.244z M31.501,19.102c0-0.065-0.046-0.107-0.146-0.107h-0.087v0.223l0.095-0.006
    C31.448,19.211,31.501,19.166,31.501,19.102z"></path>
</svg>