<svg version="1.1" xmlns="http://www.w3.org/2000/svg" xmlns:xlink="http://www.w3.org/1999/xlink" x="0px" y="0px" viewBox="0 0 62.306 32" enable-background="new 0 0 62.306 32" xml:space="preserve"><title>virtustream</title>
<path fill="#fff" d="M25.896,11.869c-0.342-0.012-0.617-0.287-0.629-0.627V9.024c0.012-0.359,0.314-0.64,0.674-0.627
    c0.34,0.011,0.615,0.286,0.627,0.627v2.218C26.555,11.6,26.253,11.881,25.896,11.869z M27.651,10.987c0.358,0,0.65-0.292,0.65-0.65
    V8.121c0-0.359-0.292-0.65-0.65-0.65s-0.649,0.291-0.649,0.65v2.216C27.002,10.695,27.293,10.987,27.651,10.987z M29.384,9.786
    c0.359,0,0.65-0.291,0.65-0.65V6.918c0-0.359-0.291-0.65-0.65-0.65s-0.649,0.291-0.649,0.65v2.217
    C28.734,9.495,29.024,9.786,29.384,9.786z M31.764,9.929V7.709c0-0.358-0.291-0.65-0.65-0.65s-0.65,0.292-0.65,0.65v2.219
    c0,0.359,0.291,0.65,0.65,0.65S31.764,10.288,31.764,9.929z M32.85,9.181c0.361,0,0.65-0.291,0.65-0.65V6.313
    c0-0.359-0.289-0.65-0.65-0.65c-0.357,0-0.65,0.291-0.65,0.65v2.218C32.199,8.89,32.492,9.181,32.85,9.181z M34.585,10.624
    c0.359,0,0.652-0.292,0.652-0.65V7.756c0-0.359-0.293-0.65-0.652-0.65s-0.65,0.291-0.65,0.65v2.217
    C33.935,10.332,34.226,10.624,34.585,10.624z M36.972,11.225V9.008c0-0.359-0.293-0.65-0.65-0.65c-0.361,0-0.65,0.291-0.65,0.65
    v2.217c0,0.359,0.289,0.65,0.65,0.65C36.679,11.875,36.972,11.584,36.972,11.225z M38.05,10.902c0.359,0,0.65-0.291,0.65-0.649
    V8.035c0-0.359-0.291-0.65-0.65-0.65s-0.648,0.291-0.648,0.65v2.218C37.401,10.611,37.69,10.902,38.05,10.902z M39.778,10.136
    c0.356,0,0.65-0.29,0.65-0.648V7.269c0-0.358-0.294-0.649-0.65-0.649c-0.358,0-0.65,0.291-0.65,0.649v2.219
    C39.128,9.846,39.42,10.136,39.778,10.136z M61.646,13.509c-0.477-0.528-1.18-0.796-2.064-0.796c-0.882,0-1.513,0.303-1.928,0.929
    c-0.026,0.042-0.071,0.064-0.121,0.064s-0.096-0.024-0.12-0.066c-0.396-0.624-1.029-0.927-1.93-0.927
    c-0.894,0-1.588,0.265-2.065,0.796c-0.437,0.479-0.658,1.106-0.658,1.871v3.453c-0.002,0.177,0.07,0.346,0.198,0.467
    c0.125,0.13,0.297,0.202,0.478,0.198c0.184,0.004,0.363-0.068,0.492-0.198c0.129-0.121,0.201-0.292,0.198-0.469v-2.965
    c0-0.864,0.053-1.437,0.156-1.741c0.188-0.506,0.6-0.773,1.208-0.773c0.778,0,1.094,0.423,1.221,0.777
    c0.107,0.309,0.156,0.875,0.156,1.738v2.967c-0.002,0.175,0.07,0.346,0.2,0.467c0.123,0.13,0.297,0.202,0.475,0.198
    c0.183,0.004,0.358-0.068,0.484-0.198c0.135-0.121,0.21-0.29,0.208-0.469V15.87c0-0.868,0.052-1.437,0.156-1.745
    c0.18-0.506,0.596-0.773,1.195-0.773c0.604,0,1.018,0.27,1.202,0.777c0.101,0.305,0.152,0.874,0.152,1.738v2.967
    c-0.004,0.175,0.068,0.346,0.197,0.467c0.129,0.132,0.309,0.203,0.491,0.198c0.179,0.004,0.352-0.068,0.476-0.198
    c0.128-0.121,0.203-0.29,0.201-0.467V15.38C62.306,14.615,62.083,13.984,61.646,13.509z M61.631,19.498c0,0,0,0-0.002,0l0,0H61.631z
     M48.904,12.716c-0.855,0-1.536,0.117-2.022,0.345c-0.221,0.107-0.286,0.233-0.21,0.421c0.042,0.13,0.168,0.213,0.302,0.202
    c0.189-0.038,0.375-0.089,0.558-0.15c0.296-0.099,0.605-0.154,0.915-0.166c0.747,0,1.247,0.338,1.489,1.005
    c0.127,0.362,0.189,0.938,0.189,1.765c0,1.827-0.476,2.755-1.41,2.755c-0.391,0.013-0.755-0.19-0.945-0.533
    c-0.182-0.284-0.275-0.617-0.269-0.956c0-0.687,0.303-1.54,1.747-1.717c0.225-0.03,0.256-0.133,0.256-0.237
    c0-0.124-0.04-0.202-0.245-0.219c-0.114-0.011-0.232-0.015-0.356-0.015c-0.683,0-1.268,0.163-1.744,0.488
    c-0.591,0.396-0.88,0.944-0.88,1.682c-0.01,0.543,0.203,1.063,0.588,1.442c0.44,0.452,1.008,0.669,1.737,0.669l0.005,0.002
    c1.941,0,2.884-1.038,2.884-3.178c0-1.216-0.143-2.091-0.428-2.604C50.681,13.042,49.973,12.716,48.904,12.716z M42.756,16.125
    c-0.122,0.015-0.244,0.038-0.363,0.072c-0.078,0.034-0.128,0.114-0.12,0.202c0.002,0.061,0.03,0.119,0.076,0.159
    c0.046,0.046,0.108,0.072,0.173,0.074c0.834-0.022,1.523-0.188,2.047-0.493c0.613-0.368,0.91-0.892,0.91-1.591
    c0.011-0.458-0.16-0.903-0.476-1.239c-0.373-0.401-0.883-0.597-1.567-0.597c-0.855,0-1.59,0.278-2.189,0.822
    c-0.694,0.631-1.046,1.497-1.046,2.573c0,1.089,0.281,1.946,0.838,2.546c0.513,0.559,1.224,0.844,2.114,0.844l-0.003-0.001
    c0.842,0,1.504-0.12,1.963-0.354c0.232-0.101,0.26-0.226,0.26-0.313c0.001-0.053-0.012-0.107-0.042-0.152l-0.01-0.02
    c-0.047-0.105-0.153-0.17-0.271-0.163l-0.168,0.043c-0.456,0.185-0.94,0.283-1.433,0.288c-0.445,0-0.856-0.202-1.204-0.598
    c-0.43-0.498-0.648-1.213-0.648-2.133s0.195-1.647,0.574-2.156c0.317-0.423,0.703-0.638,1.145-0.638c0.662,0,1.022,0.41,1.022,1.155
    C44.337,15.095,44.063,15.901,42.756,16.125z M40.218,13.147c-0.291-0.286-0.86-0.433-1.687-0.433c-1.699,0-2.524,0.878-2.524,2.7
    v3.419c-0.001,0.178,0.07,0.348,0.2,0.467c0.125,0.13,0.295,0.202,0.476,0.198c0.184,0.005,0.36-0.065,0.49-0.198
    c0.13-0.119,0.202-0.289,0.2-0.466v-3.108c0-0.833,0.089-1.42,0.263-1.783c0.193-0.404,0.561-0.606,1.102-0.606
    c0.245-0.006,0.489,0.041,0.714,0.137c0.152,0.063,0.296,0.122,0.442,0.188c0.048,0.015,0.096,0.022,0.143,0.022
    c0.088,0.004,0.169-0.045,0.208-0.125C40.369,13.341,40.301,13.228,40.218,13.147z M36.684,19.498L36.684,19.498h-0.003H36.684z
     M35.143,18.992c-0.677-0.117-1.164-0.464-1.437-1.022c-0.083-0.173-0.195-0.556-0.195-1.856v-2.334c0-0.008,0-0.013,0-0.019
    c0.006-0.122,0.106-0.214,0.229-0.208h1.138c0.237,0,0.33-0.086,0.33-0.335c0-0.25-0.099-0.352-0.338-0.352h-1.141
    c-0.008,0-0.016,0-0.023,0c-0.111-0.006-0.197-0.101-0.19-0.212v-1.175c0.002-0.181-0.07-0.354-0.197-0.48
    c-0.119-0.129-0.281-0.204-0.457-0.204c-0.176-0.002-0.345,0.073-0.467,0.204c-0.13,0.125-0.2,0.299-0.198,0.48v1.175
    c0,0.004,0,0.011,0,0.015c-0.004,0.113-0.1,0.2-0.213,0.197h-0.596c-0.238,0-0.336,0.102-0.336,0.352
    c0,0.237,0.101,0.335,0.344,0.335h0.588c0.007,0,0.013,0,0.019,0c0.116,0.01,0.202,0.11,0.194,0.227v2.902
    c-0.012,0.791,0.136,1.403,0.432,1.817c0.254,0.331,0.592,0.589,0.975,0.749c0.343,0.159,0.716,0.245,1.093,0.251
    c0.148,0.004,0.298-0.008,0.444-0.032c0.241-0.021,0.262-0.132,0.262-0.236C35.4,19.161,35.4,19.036,35.143,18.992z M29.123,15.796
    c-0.403-0.191-0.808-0.375-1.217-0.551c-0.478-0.272-0.72-0.58-0.72-0.92c0-0.457,0.236-1.003,1.369-1.003
    c0.354,0,0.817,0.116,1.414,0.343c0.053,0.022,0.107,0.034,0.164,0.036c0.06,0,0.149-0.017,0.244-0.151
    c0.035-0.047,0.054-0.103,0.053-0.161c0-0.108-0.033-0.26-0.32-0.373c-0.557-0.208-1.145-0.311-1.737-0.303
    c-0.703,0-1.29,0.177-1.726,0.509c-0.434,0.332-0.645,0.739-0.645,1.249c-0.01,0.491,0.191,0.962,0.549,1.297
    c0.176,0.175,0.475,0.372,0.892,0.583l0.182,0.102l1.092,0.563c0.478,0.244,0.71,0.51,0.71,0.814
    c0.007,0.355-0.18,0.688-0.488,0.869c-0.275,0.149-0.587,0.224-0.9,0.216c-0.549-0.005-1.091-0.122-1.593-0.344
    c-0.066-0.03-0.141-0.046-0.215-0.05c-0.104-0.002-0.201,0.058-0.247,0.152c-0.032,0.054-0.05,0.114-0.05,0.175
    c-0.008,0.122,0.061,0.236,0.171,0.285c0.463,0.244,1.145,0.365,2.02,0.365l0.005,0.002c0.705,0,1.325-0.181,1.806-0.519
    c0.48-0.337,0.716-0.774,0.716-1.335c0-0.463-0.127-0.83-0.39-1.122C30.04,16.296,29.658,16.053,29.123,15.796z M24.364,12.714
    c-0.183-0.001-0.356,0.07-0.485,0.2c-0.133,0.117-0.209,0.288-0.207,0.465V16.4c0,0.782-0.046,1.314-0.151,1.616
    c-0.192,0.585-0.632,0.893-1.266,0.893c-0.635,0-1.077-0.308-1.283-0.891c-0.102-0.304-0.152-0.835-0.152-1.618v-3.021
    c0.003-0.177-0.07-0.345-0.199-0.466c-0.129-0.132-0.308-0.204-0.492-0.2c-0.181-0.001-0.352,0.07-0.477,0.201
    c-0.129,0.12-0.2,0.289-0.199,0.465v3.47c0,0.751,0.236,1.356,0.723,1.85c0.51,0.532,1.209,0.799,2.079,0.799
    c0.859,0,1.555-0.27,2.066-0.8c0.483-0.495,0.719-1.102,0.719-1.849v-3.471c0.001-0.176-0.071-0.345-0.199-0.466
    C24.715,12.783,24.544,12.711,24.364,12.714z M22.256,19.498c-0.001,0-0.001,0-0.002,0s-0.001,0-0.002,0H22.256z M18.207,19.498
    C18.207,19.498,18.207,19.498,18.207,19.498h-0.002H18.207z M18.655,18.992c-0.677-0.117-1.162-0.463-1.435-1.022
    c-0.083-0.172-0.195-0.552-0.195-1.854v-2.337c-0.001-0.008-0.001-0.015,0-0.022c0.007-0.12,0.108-0.21,0.228-0.204h1.131
    c0.238,0,0.331-0.085,0.331-0.335c0-0.251-0.096-0.352-0.335-0.352h-1.143c-0.007,0-0.014,0-0.02,0
    c-0.112-0.006-0.197-0.101-0.192-0.213v-1.175c0.001-0.181-0.07-0.354-0.199-0.48c-0.114-0.128-0.278-0.203-0.45-0.204
    c-0.178-0.002-0.347,0.073-0.467,0.204c-0.129,0.126-0.201,0.299-0.2,0.48v1.175c0,0.004,0,0.008,0,0.013
    c-0.004,0.113-0.098,0.202-0.211,0.198h-0.597c-0.226,0-0.285,0.093-0.315,0.185c-0.013,0.047-0.051,0.084-0.098,0.098
    c-0.014,0.002-0.026,0.005-0.039,0.005c-0.035,0-0.07-0.013-0.097-0.036c-0.298-0.266-0.855-0.401-1.652-0.401
    c-1.699,0-2.524,0.878-2.524,2.7v3.419c-0.001,0.178,0.07,0.348,0.201,0.467c0.124,0.13,0.295,0.202,0.475,0.198
    c0.184,0.005,0.363-0.065,0.492-0.198c0.129-0.121,0.202-0.289,0.2-0.467v-3.107c0-0.833,0.084-1.418,0.261-1.787
    c0.192-0.403,0.56-0.605,1.101-0.605c0.246-0.006,0.489,0.041,0.715,0.137c0.152,0.062,0.298,0.123,0.442,0.188
    c0.046,0.015,0.094,0.022,0.143,0.022c0.086,0.004,0.166-0.042,0.204-0.121c0.008-0.011,0.015-0.023,0.021-0.035
    c0.02-0.042,0.06-0.07,0.104-0.077c0.009-0.001,0.017-0.001,0.026,0c0.034,0,0.069,0.013,0.094,0.036
    c0.076,0.052,0.165,0.076,0.254,0.069h0.588c0.007,0,0.013,0,0.019,0c0.117,0.01,0.204,0.11,0.195,0.227v2.897
    c-0.012,0.796,0.134,1.408,0.432,1.822c0.253,0.331,0.589,0.589,0.974,0.749c0.343,0.159,0.713,0.245,1.091,0.251
    c0.15,0.004,0.299-0.008,0.447-0.03c0.239-0.022,0.259-0.134,0.259-0.236C18.912,19.164,18.912,19.038,18.655,18.992z M7.771,12.713
    c-0.179-0.003-0.351,0.07-0.474,0.199c-0.132,0.125-0.206,0.302-0.202,0.484v5.438c-0.003,0.178,0.07,0.348,0.2,0.467
    c0.125,0.13,0.297,0.202,0.476,0.198c0.181,0.002,0.356-0.07,0.484-0.199c0.132-0.12,0.208-0.288,0.207-0.466v-5.438
    c0.004-0.183-0.071-0.359-0.207-0.481C8.128,12.783,7.953,12.711,7.771,12.713z M5.59,12.713c-0.252,0-0.371,0.096-0.405,0.324
    c-0.154,0.985-0.322,1.772-0.501,2.351c-0.211,0.718-0.474,1.42-0.787,2.101c-0.352,0.73-0.5,0.872-0.66,0.872
    c-0.161,0-0.366-0.117-0.746-0.977c-0.288-0.654-0.529-1.327-0.719-2.016c-0.188-0.641-0.321-1.294-0.402-1.957
    c-0.055-0.483-0.267-0.699-0.683-0.699c-0.191,0-0.374,0.08-0.503,0.222c-0.132,0.123-0.2,0.3-0.183,0.481
    c0.152,1.331,0.506,2.633,1.052,3.856c0.636,1.458,1.298,2.227,1.904,2.227c0.366,0,0.974-0.378,1.789-2.182
    c0.653-1.435,1.066-2.872,1.23-4.271c0.019-0.08,0.004-0.166-0.044-0.234C5.863,12.73,5.708,12.713,5.59,12.713z M7.779,9.121
    c-0.006,0-0.01,0-0.016,0C7.344,9.124,7.009,9.468,7.014,9.887c0,0.004,0,0.009,0,0.016c0.004,0.418,0.347,0.754,0.765,0.75v-0.001
    c0.201,0.004,0.393-0.077,0.53-0.221c0.296-0.302,0.296-0.785,0-1.088C8.171,9.197,7.979,9.115,7.779,9.121z"></path></svg>