<svg version="1.1" xmlns="http://www.w3.org/2000/svg" xmlns:xlink="http://www.w3.org/1999/xlink" x="0px" y="0px" viewBox="0 0 40.399 32" enable-background="new 0 0 40.399 32" xml:space="preserve">
	<title>DellEMC</title>
	<path fill="#fff" d="M33.979,12.798l0.086,0.089v6.063l-0.08,0.091h-0.357L33.54,18.95v-5.171h-0.088L31.22,18.95l-0.089,0.091
    h-0.446l-0.089-0.091l-2.231-5.171h-0.09v5.171l-0.088,0.091h-0.357l-0.09-0.091v-6.063l0.09-0.089h0.621l0.089,0.089l2.318,5.438
    h0.091l2.317-5.438l0.089-0.089H33.979z M39.954,17.079l-0.09,0.088c-0.178,0.984-0.803,1.516-1.873,1.516
    c-1.336,0-2.317-0.98-2.317-2.764c0-1.783,0.985-2.764,2.317-2.764c1.07,0,1.695,0.535,1.873,1.426l0.088,0.091h0.358l0.089-0.09
    c-0.18-1.247-1.159-1.871-2.409-1.871c-1.514,0-2.853,1.07-2.853,3.209c0,2.139,1.338,3.21,2.853,3.21l0.001-0.001
    c1.248,0,2.233-0.624,2.408-1.963l-0.089-0.088H39.954z M22.656,12.8l-0.091,0.087v6.063l0.091,0.091h3.833l0.086-0.091v-0.268
    l-0.09-0.088h-3.296l-0.085-0.089v-2.32l0.089-0.089h3.121l0.09-0.088V15.74l-0.09-0.088h-3.125l-0.085-0.091v-2.23l0.089-0.089
    h3.299l0.089-0.09v-0.263L26.492,12.8H22.656z M18.538,12.798h-1.417v6.243h4.026V17.8h-2.609V12.798z M14.03,17.8h2.609v1.241
    h-4.027v-2.334l-3.529,2.757l-3.531-2.757c-0.359,1.374-1.601,2.334-3.021,2.334L0,19.039v-6.243h2.533
    c1.42,0.001,2.661,0.96,3.019,2.335l3.531-2.756l1.007,0.788l-3.385,2.646l0.757,0.589l3.385-2.644l1.007,0.788l-1.765,1.378
    l-1.62,1.268l0.757,0.59l3.385-2.645v-2.333h1.418V17.8z M4.237,15.919c0-1.038-0.766-1.879-1.707-1.879H1.414v3.76H2.53
    C3.471,17.8,4.237,16.957,4.237,15.919z"></path>
</svg>